<svg xmlns="http://www.w3.org/2000/svg" viewBox="0 0 24 24" fill="none">
  <path fill="#AFB0B6" d="M20.52 3.48A11.88 11.88 0 0 0 12.06 0C5.48 0 .13 5.35.13 11.93c0 2.1.55 4.16 1.59 5.97L.03 24l6.24-1.64a11.92 11.92 0 0 0 5.78 1.47h.01c6.58 0 11.93-5.35 11.93-11.93 0-3.19-1.23-6.18-3.47-8.42Zm-8.46 18.33h-.01a9.88 9.88 0 0 1-5.04-1.38l-.36-.21-3.7.97.99-3.61-.23-.37a9.86 9.86 0 0 1-1.52-5.28c0-5.44 4.43-9.87 9.88-9.87a9.8 9.8 0 0 1 6.98 2.89 9.8 9.8 0 0 1 2.89 6.98c-.01 5.45-4.44 9.88-9.88 9.88Zm5.41-7.4c-.3-.15-1.75-.86-2.02-.96-.27-.1-.47-.15-.67.15-.2.3-.76.96-.93 1.16-.17.2-.35.22-.64.07-.3-.15-1.25-.46-2.38-1.47a8.92 8.92 0 0 1-1.65-2.05c-.17-.3-.02-.46.13-.6.13-.13.3-.35.44-.52.15-.18.2-.3.3-.5.1-.2.05-.38-.03-.52-.07-.15-.67-1.62-.91-2.22-.24-.58-.49-.5-.67-.51h-.57c-.2 0-.52.08-.79.37-.27.3-1.04 1.02-1.04 2.48 0 1.46 1.06 2.87 1.21 3.07.15.2 2.09 3.19 5.06 4.47.71.3 1.26.49 1.69.63.71.23 1.35.2 1.86.12.57-.08 1.75-.72 2-1.41.24-.7.24-1.3.17-1.42-.08-.12-.27-.2-.57-.34Z"/>
</svg>
