# Blender v3.1.2 OBJ File: ''
# www.blender.org
mtllib briefcase.mtl
o BriefCase001a_reference.001
v -1.365600 6.262000 2.002800
v -1.202100 6.359900 1.786800
v -1.385300 -1.619800 2.347900
v -1.483800 -1.349200 2.347900
v -1.202100 6.359900 3.004700
v -1.365600 6.262000 2.788700
v -1.081900 6.212000 2.002800
v -1.081900 6.212000 2.788700
v -1.200100 -1.399200 2.347900
v 1.480800 5.838200 -9.541300
v 1.480800 5.838200 9.541300
v 2.179301 5.160700 9.541300
v 2.179300 5.160700 -9.541300
v 2.828001 4.073100 9.541300
v 2.828000 4.073100 -9.541300
v 3.246800 2.643500 9.541300
v 3.246799 2.643500 -9.541300
v 3.368500 -0.372600 9.541300
v 3.695699 -0.372600 -9.541300
v 3.994401 -8.631200 9.541300
v 3.978300 -8.631200 -9.541300
v 2.044300 6.262000 -2.138100
v 1.880800 6.359900 -1.922100
v 2.064000 -1.619800 -2.483200
v 2.162500 -1.349200 -2.483200
v 1.880800 6.359900 -3.140100
v 2.044300 6.262000 -2.924100
v 1.760700 6.212000 -2.924100
v 1.878900 -1.399200 -2.483200
v 1.760700 6.212000 -2.138100
v 2.097700 6.155900 2.230600
v 2.096800 6.161000 2.672900
v 1.739400 6.098001 2.672900
v 1.740300 6.092800 2.230600
v 1.459900 8.631200 1.796200
v 1.459900 8.631200 -1.872100
v 1.006100 8.544200 -1.872100
v 1.006100 8.544200 1.796200
v 2.095100 6.170800 -2.806000
v 2.095100 6.170700 -2.317000
v 1.737700 6.107700 -2.317000
v 1.737700 6.107700 -2.806000
v -1.419000 6.155900 -2.366000
v -1.418100 6.161000 -2.808300
v -1.060700 6.098001 -2.808300
v -1.061600 6.092800 -2.366000
v -0.806000 8.562601 -1.931600
v -0.806000 8.562601 1.736700
v -0.352200 8.475501 1.736700
v -0.352200 8.475501 -1.931600
v -1.416400 6.170800 2.670600
v -1.416400 6.170700 2.181600
v -1.058900 6.107700 2.181600
v -1.058900 6.107700 2.670600
v 1.760700 6.212000 2.042600
v 2.044300 6.262000 2.042600
v 2.044300 6.262000 2.828500
v 1.878900 -0.542800 2.207000
v 2.064000 -0.763500 2.207000
v 1.880800 6.359900 3.044500
v 1.880800 6.359900 1.826500
v 1.760700 6.212000 2.828500
v 2.162500 -0.492800 2.207000
v -1.098900 5.838200 9.541300
v -1.098900 5.838200 -9.541300
v -1.775800 5.180700 -9.541300
v -2.468301 4.053100 -9.541300
v -2.926301 2.643500 -9.541300
v -3.368500 -0.372600 -9.541300
v -3.651000 -8.631200 -9.541300
v -3.994400 -8.631200 9.541300
v 1.578100 6.522500 2.114900
v 2.103200 6.615100 2.114900
v 1.057500 7.795500 1.653900
v 1.698100 7.908400 1.653900
v -3.368500 -0.372600 9.541300
v -2.926300 2.643500 9.541300
v -2.468300 4.053100 9.541300
v -1.775800 5.180700 9.541300
v 2.100600 6.630000 -2.219200
v 1.575500 6.537400 -2.219200
v 1.697200 7.913600 -1.797100
v 1.056500 7.800600 -1.797100
v -1.200100 -0.542800 -2.342400
v -1.483800 -0.492800 -2.342400
v -1.365600 6.262000 -2.177900
v -1.202100 6.359900 -1.961900
v -1.385300 -0.763500 -2.342400
v -1.081900 6.212000 -2.177900
v -1.365600 6.262000 -2.963900
v -1.202100 6.359900 -3.179900
v -1.081900 6.212000 -2.963900
v -1.421900 6.630000 2.768400
v -1.421900 6.630000 2.083800
v -1.011400 8.025700 2.296100
v -1.043300 7.844900 1.661800
v -1.011700 8.024201 1.311800
v -1.011700 8.024201 -1.552900
v -1.011400 8.025700 -2.491000
v -1.044200 7.839700 -1.789200
v -1.423600 6.620200 -2.918100
v -1.424500 6.615100 -2.250200
v 2.102300 6.620200 2.782700
v 1.665300 8.094401 2.355600
v 1.665600 8.092901 1.417500
v 1.665600 8.092901 -1.447100
v 1.665300 8.094401 -2.431500
v 2.100600 6.630000 -2.903800
v -0.403600 7.726800 -1.789200
v -0.371000 7.911300 -1.552900
v -0.371000 7.911300 1.311800
v -0.402600 7.731900 1.661800
v -0.370800 7.912800 2.296100
v -0.896700 6.537400 2.768400
v -0.898400 6.527600 -2.918100
v -0.370800 7.912800 -2.491000
v 1.575400 6.537400 -2.903800
v 1.024700 7.981500 -2.431500
v 1.024900 7.980000 -1.447100
v 1.024900 7.980000 1.417500
v 1.024700 7.981500 2.355600
v 1.577200 6.527600 2.782700
v -0.899300 6.522500 -2.250200
v -0.896700 6.537400 2.083800
vt 0.663600 0.357700
vt 0.700600 0.357700
vt 0.712100 0.346700
vt 0.652400 0.347600
vt 0.722800 0.331100
vt 0.642100 0.330800
vt 0.729000 0.310600
vt 0.636300 0.311200
vt 0.736700 0.267500
vt 0.629700 0.268100
vt 0.745500 0.149200
vt 0.622600 0.149900
vt 0.780600 0.137300
vt 0.478400 0.137500
vt 0.780600 0.006000
vt 0.478400 0.006200
vt 0.700600 0.357700
vt 0.663600 0.357700
vt 0.652400 0.347600
vt 0.712100 0.346700
vt 0.642100 0.330800
vt 0.722800 0.331100
vt 0.636300 0.311200
vt 0.729000 0.310600
vt 0.629700 0.268100
vt 0.736700 0.267500
vt 0.622600 0.149900
vt 0.745500 0.149200
vt 0.677700 0.288300
vt 0.678900 0.291200
vt 0.678600 0.273700
vt 0.680100 0.300100
vt 0.678600 0.274300
vt 0.675300 0.291200
vt 0.675500 0.288300
vt 0.680100 0.298600
vt 0.676600 0.298600
vt 0.676400 0.303000
vt 0.678600 0.274200
vt 0.681300 0.303000
vt 0.676600 0.300100
vt 0.837200 0.634800
vt 0.526800 0.634800
vt 0.526800 0.620300
vt 0.837200 0.620300
vt 0.526800 0.602700
vt 0.837200 0.602700
vt 0.526800 0.579600
vt 0.837200 0.579600
vt 0.526800 0.541100
vt 0.837200 0.541100
vt 0.526800 0.414000
vt 0.837200 0.414000
vt 0.677700 0.288300
vt 0.678900 0.291200
vt 0.678600 0.273700
vt 0.680100 0.300100
vt 0.678600 0.274300
vt 0.675300 0.291200
vt 0.675500 0.288300
vt 0.676600 0.298600
vt 0.676600 0.300100
vt 0.678600 0.274200
vt 0.680100 0.298600
vt 0.676400 0.303000
vt 0.681300 0.303000
vt 0.744900 0.518100
vt 0.753000 0.518100
vt 0.753000 0.524600
vt 0.744900 0.524600
vt 0.669500 0.526900
vt 0.736200 0.526900
vt 0.736200 0.535200
vt 0.669500 0.535200
vt 0.653400 0.518100
vt 0.662200 0.518100
vt 0.662200 0.524600
vt 0.653400 0.524600
vt 0.744900 0.518100
vt 0.753000 0.518100
vt 0.753000 0.524600
vt 0.744900 0.524600
vt 0.669500 0.526900
vt 0.736200 0.526900
vt 0.736200 0.535200
vt 0.669500 0.535200
vt 0.653400 0.518100
vt 0.662200 0.518100
vt 0.662200 0.524600
vt 0.653400 0.524600
vt 0.676900 0.298600
vt 0.676900 0.300100
vt 0.680400 0.300100
vt 0.678600 0.274100
vt 0.678600 0.273600
vt 0.681600 0.303000
vt 0.675700 0.303000
vt 0.680400 0.298600
vt 0.678600 0.274200
vt 0.786100 0.003000
vt 0.787700 0.272900
vt 0.832600 0.004000
vt 0.834900 0.273800
vt 0.729600 0.518100
vt 0.730800 0.524600
vt 0.722900 0.527500
vt 0.721300 0.518000
vt 0.691000 0.534200
vt 0.688900 0.522600
vt 0.837200 0.414000
vt 0.526800 0.414000
vt 0.837200 0.541100
vt 0.526800 0.541100
vt 0.526800 0.579600
vt 0.837200 0.579600
vt 0.526800 0.602400
vt 0.837200 0.602400
vt 0.526800 0.620600
vt 0.837200 0.620600
vt 0.526800 0.634800
vt 0.837200 0.634800
vt 0.676100 0.524600
vt 0.677200 0.518100
vt 0.685600 0.518000
vt 0.683900 0.527600
vt 0.717700 0.522600
vt 0.715700 0.534300
vt 0.678600 0.274100
vt 0.678600 0.274200
vt 0.676900 0.300100
vt 0.675700 0.303000
vt 0.678600 0.273600
vt 0.676900 0.298600
vt 0.680400 0.300100
vt 0.681600 0.303000
vt 0.680400 0.298600
vt 0.744300 0.500500
vt 0.753200 0.500500
vt 0.755000 0.508900
vt 0.742500 0.508900
vt 0.746400 0.544300
vt 0.734900 0.541000
vt 0.736200 0.554100
vt 0.728500 0.544300
vt 0.676400 0.544300
vt 0.669500 0.554100
vt 0.659300 0.544300
vt 0.672100 0.540900
vt 0.651600 0.508700
vt 0.663700 0.508600
vt 0.653600 0.500300
vt 0.661600 0.500200
vt 0.653600 0.500300
vt 0.661600 0.500200
vt 0.663700 0.508600
vt 0.651600 0.508700
vt 0.672100 0.540900
vt 0.659300 0.544300
vt 0.676400 0.544300
vt 0.669500 0.554100
vt 0.736200 0.554100
vt 0.728500 0.544300
vt 0.734900 0.541000
vt 0.746400 0.544300
vt 0.742500 0.508900
vt 0.755000 0.508900
vt 0.744300 0.500500
vt 0.753200 0.500500
vt 0.734400 0.522600
vt 0.734400 0.534200
vt 0.730100 0.534800
vt 0.730100 0.523200
vt 0.678100 0.523200
vt 0.678100 0.534800
vt 0.671700 0.534300
vt 0.671700 0.522600
vt 0.677400 0.535200
vt 0.675800 0.526900
vt 0.685600 0.523200
vt 0.687600 0.534800
vt 0.721000 0.518000
vt 0.722700 0.527600
vt 0.729300 0.518100
vt 0.730500 0.524600
vt 0.675900 0.524600
vt 0.677000 0.518100
vt 0.685400 0.518000
vt 0.683700 0.527500
vt 0.721000 0.523200
vt 0.718900 0.534800
vt 0.730800 0.526900
vt 0.729200 0.535200
vt 0.653400 0.499400
vt 0.662200 0.499400
vt 0.664000 0.507200
vt 0.651600 0.507200
vt 0.671700 0.539000
vt 0.660200 0.542200
vt 0.678100 0.542200
vt 0.670300 0.552500
vt 0.730100 0.542200
vt 0.737000 0.552500
vt 0.734400 0.538900
vt 0.747200 0.542200
vt 0.742800 0.506900
vt 0.755000 0.507000
vt 0.744900 0.499100
vt 0.753000 0.499200
vt 0.729600 0.518100
vt 0.730800 0.524600
vt 0.722900 0.527500
vt 0.721300 0.518000
vt 0.691000 0.534200
vt 0.688900 0.522600
vt 0.734400 0.522600
vt 0.734400 0.534200
vt 0.730100 0.534800
vt 0.730100 0.523200
vt 0.678100 0.523200
vt 0.678100 0.534800
vt 0.671700 0.534300
vt 0.671700 0.522600
vt 0.677400 0.535200
vt 0.675800 0.526900
vt 0.685600 0.523200
vt 0.687600 0.534800
vt 0.721000 0.518000
vt 0.722700 0.527600
vt 0.729300 0.518100
vt 0.730500 0.524600
vt 0.675900 0.524600
vt 0.677000 0.518100
vt 0.685400 0.518000
vt 0.683700 0.527500
vt 0.721000 0.523200
vt 0.718900 0.534800
vt 0.730800 0.526900
vt 0.729200 0.535200
vt 0.676100 0.524600
vt 0.677200 0.518100
vt 0.685600 0.518000
vt 0.683900 0.527600
vt 0.717700 0.522600
vt 0.715700 0.534300
vt 0.653400 0.499400
vt 0.662200 0.499400
vt 0.664000 0.507200
vt 0.651600 0.507200
vt 0.671700 0.539000
vt 0.660200 0.542200
vt 0.678100 0.542200
vt 0.670300 0.552500
vt 0.730100 0.542200
vt 0.737000 0.552500
vt 0.734400 0.538900
vt 0.747200 0.542200
vt 0.742800 0.506900
vt 0.755000 0.507000
vt 0.744900 0.499100
vt 0.753000 0.499200
vn 0.0000 0.0000 -1.0000
vn 0.0000 -1.0000 0.0000
vn 0.0000 0.0000 1.0000
vn -0.9824 0.1748 0.0659
vn 0.0715 0.6374 -0.7672
vn -0.1264 -0.9920 -0.0014
vn -0.9847 -0.1652 -0.0557
vn 0.0753 0.6314 0.7718
vn -0.9813 0.1807 -0.0661
vn 0.9830 -0.0060 0.1834
vn 0.9853 -0.0161 -0.1704
vn 0.9267 -0.3756 0.0148
vn 0.2912 0.7186 -0.6315
vn 0.2912 0.7186 0.6315
vn 0.5760 0.4556 0.6788
vn 0.5760 0.4556 -0.6788
vn 0.6722 0.2933 0.6798
vn 0.6722 0.2933 -0.6798
vn 0.7229 0.1186 0.6806
vn 0.7085 0.1517 -0.6893
vn 0.6983 0.0443 0.7144
vn 0.7197 0.0695 -0.6908
vn 0.5964 -0.5587 0.5764
vn 0.5878 -0.5683 -0.5758
vn 0.9824 0.1748 -0.0659
vn -0.0716 0.6373 0.7672
vn 0.1264 -0.9920 0.0014
vn 0.9847 -0.1652 0.0557
vn -0.0754 0.6313 -0.7718
vn 0.9813 0.1807 0.0660
vn -0.9852 -0.0162 0.1705
vn -0.9267 -0.3754 -0.0148
vn -0.9830 -0.0062 -0.1836
vn 0.6373 -0.5904 -0.4953
vn 0.6360 -0.5816 0.5072
vn -0.3985 -0.7640 0.5074
vn -0.3966 -0.7729 -0.4953
vn 0.4072 0.8655 0.2918
vn 0.4161 0.8593 -0.2973
vn -0.7040 0.6469 -0.2930
vn -0.7100 0.6401 0.2934
vn 0.6340 -0.5788 -0.5129
vn 0.6339 -0.5790 0.5128
vn -0.3977 -0.7608 0.5129
vn -0.3976 -0.7608 -0.5129
vn -0.6373 -0.5904 0.4952
vn -0.6360 -0.5816 -0.5072
vn 0.3984 -0.7641 -0.5074
vn 0.3965 -0.7730 0.4953
vn -0.4071 0.8655 -0.2918
vn -0.4160 0.8593 0.2974
vn 0.7041 0.6468 0.2931
vn 0.7101 0.6400 -0.2934
vn -0.6339 -0.5788 0.5129
vn -0.6339 -0.5790 -0.5128
vn 0.3977 -0.7608 -0.5129
vn 0.3977 -0.7608 0.5129
vn -0.9835 -0.0244 0.1793
vn 0.9808 0.1798 0.0762
vn 0.9827 0.1774 -0.0531
vn -0.9256 -0.3689 -0.0851
vn 0.1244 -0.9919 -0.0258
vn -0.0711 0.6234 0.7787
vn -0.0771 0.6405 -0.7641
vn -0.9860 -0.0002 -0.1669
vn 0.9845 -0.1660 -0.0558
vn -0.2915 0.7185 0.6315
vn -0.2915 0.7185 -0.6315
vn -0.6175 -0.4442 -0.6492
vn 0.7686 -0.0596 -0.6369
vn -0.7211 -0.5121 -0.4667
vn 0.8166 -0.1968 -0.5427
vn -0.5823 -0.5693 -0.5803
vn -0.6018 -0.5576 0.5717
vn -0.7137 0.0682 -0.6972
vn -0.7104 0.0789 0.6993
vn -0.7060 0.1652 0.6886
vn -0.7060 0.1652 -0.6886
vn -0.6645 0.3067 0.6815
vn -0.6645 0.3067 -0.6815
vn -0.5721 0.4583 0.6802
vn -0.5721 0.4583 -0.6802
vn 0.7657 -0.0465 0.6415
vn -0.6164 -0.4331 0.6577
vn 0.8564 -0.1436 0.4960
vn -0.7183 -0.5646 0.4065
vn 0.9255 -0.3690 0.0851
vn -0.9845 -0.1660 0.0558
vn -0.9808 0.1797 -0.0761
vn 0.0770 0.6405 0.7641
vn -0.1245 -0.9919 0.0258
vn 0.9835 -0.0243 -0.1791
vn -0.9827 0.1774 0.0531
vn 0.0710 0.6234 -0.7787
vn 0.9860 -0.0001 0.1668
vn -0.6725 0.1316 0.7283
vn -0.7680 -0.0518 -0.6384
vn -0.5555 0.5613 0.6135
vn -0.8561 -0.1509 -0.4942
vn -0.9074 -0.3944 -0.1449
vn -0.9143 -0.3409 0.2187
vn -0.5557 0.5427 -0.6298
vn -0.8159 -0.2044 0.5409
vn -0.6766 0.1165 -0.7271
vn -0.7711 -0.0649 0.6334
vn 0.6786 0.1133 0.7257
vn 0.5546 0.5397 0.6334
vn 0.9143 -0.3409 -0.2186
vn 0.9075 -0.3944 0.1449
vn 0.5544 0.5579 -0.6175
vn 0.6747 0.1278 -0.7269
vn 0.7181 -0.5169 0.4659
vn 0.7313 -0.6554 0.1891
vn 0.6966 -0.6987 -0.1631
vn 0.7154 -0.5688 -0.4057
vn 0.7392 0.2165 0.6378
vn 0.6232 -0.1754 0.7622
vn 0.6215 -0.1922 -0.7595
vn 0.7410 0.2037 -0.6399
vn -0.6231 -0.1815 -0.7608
vn -0.7371 0.2136 -0.6411
vn -0.6966 -0.6987 0.1631
vn -0.7312 -0.6554 -0.1890
vn -0.7391 0.2014 0.6428
vn -0.6213 -0.1977 0.7582
vn 0.6175 -0.4507 0.6446
vn 0.6160 -0.4396 -0.6537
usemtl Furniture_DetailProps001a.001
s off
f 65/1/1 10/2/1 13/3/1
f 13/3/1 66/4/1 65/1/1
f 66/4/1 13/3/1 15/5/1
f 15/5/1 67/6/1 66/4/1
f 67/6/1 15/5/1 17/7/1
f 17/7/1 68/8/1 67/6/1
f 68/8/1 17/7/1 19/9/1
f 19/9/1 69/10/1 68/8/1
f 19/9/1 21/11/1 69/10/1
f 70/12/1 69/10/1 21/11/1
f 21/13/2 20/14/2 70/15/2
f 71/16/2 70/15/2 20/14/2
f 11/17/3 64/18/3 79/19/3
f 79/19/3 12/20/3 11/17/3
f 12/20/3 79/19/3 78/21/3
f 78/21/3 14/22/3 12/20/3
f 14/22/3 78/21/3 77/23/3
f 77/23/3 16/24/3 14/22/3
f 16/24/3 77/23/3 76/25/3
f 76/25/3 18/26/3 16/24/3
f 76/25/3 71/27/3 18/26/3
f 20/28/3 18/26/3 71/27/3
s 1
f 1/29/4 2/30/5 3/31/6
f 1/32/4 3/31/6 4/33/7
f 4/33/7 3/31/6 5/34/8
f 4/33/7 5/34/8 6/35/9
f 7/36/10 1/32/4 4/33/7
f 8/37/11 1/32/4 7/36/10
f 5/38/8 8/37/11 7/36/10
f 3/31/6 8/37/11 5/38/8
f 3/31/6 9/39/12 8/37/11
f 2/40/5 9/39/12 3/31/6
f 2/40/5 7/36/10 9/39/12
f 5/38/8 7/36/10 2/40/5
f 6/41/9 5/38/8 2/40/5
f 6/41/9 2/40/5 1/32/4
f 8/37/11 6/41/9 1/32/4
f 9/39/12 6/41/9 8/37/11
f 9/39/12 4/33/7 6/41/9
f 7/36/10 4/33/7 9/39/12
f 10/42/13 11/43/14 12/44/15
f 12/44/15 13/45/16 10/42/13
f 13/45/16 12/44/15 14/46/17
f 14/46/17 15/47/18 13/45/16
f 15/47/18 14/46/17 16/48/19
f 16/48/19 17/49/20 15/47/18
f 17/49/20 16/48/19 18/50/21
f 18/50/21 19/51/22 17/49/20
f 18/50/21 20/52/23 19/51/22
f 21/53/24 19/51/22 20/52/23
f 22/54/25 23/55/26 24/56/27
f 22/57/25 24/56/27 25/58/28
f 25/58/28 24/56/27 26/59/29
f 25/58/28 26/59/29 27/60/30
f 28/61/31 27/62/30 22/57/25
f 29/63/32 27/62/30 28/61/31
f 29/63/32 25/58/28 27/62/30
f 30/64/33 25/58/28 29/63/32
f 30/64/33 22/57/25 25/58/28
f 28/61/31 22/57/25 30/64/33
f 26/65/29 28/61/31 30/64/33
f 24/56/27 28/61/31 26/65/29
f 24/56/27 29/63/32 28/61/31
f 23/66/26 29/63/32 24/56/27
f 23/66/26 30/64/33 29/63/32
f 26/65/29 30/64/33 23/66/26
f 27/62/30 26/65/29 23/66/26
f 27/62/30 23/66/26 22/57/25
f 31/67/34 32/68/35 33/69/36
f 33/69/36 34/70/37 31/67/34
f 35/71/38 36/72/39 37/73/40
f 37/73/40 38/74/41 35/71/38
f 39/75/42 40/76/43 41/77/44
f 41/77/44 42/78/45 39/75/42
f 43/79/46 44/80/47 45/81/48
f 45/81/48 46/82/49 43/79/46
f 47/83/50 48/84/51 49/85/52
f 49/85/52 50/86/53 47/83/50
f 51/87/54 52/88/55 53/89/56
f 53/89/56 54/90/57 51/87/54
f 55/91/58 56/92/59 57/93/60
f 58/94/61 56/92/59 55/91/58
f 59/95/62 58/94/61 55/91/58
f 60/96/63 58/94/61 59/95/62
f 61/97/64 62/98/65 60/96/63
f 60/96/63 62/98/65 58/94/61
f 62/98/65 63/99/66 58/94/61
f 58/94/61 63/99/66 56/92/59
f 63/99/66 61/97/64 56/92/59
f 56/92/59 61/97/64 60/96/63
f 56/92/59 60/96/63 57/93/60
f 57/93/60 60/96/63 59/95/62
f 57/93/60 59/95/62 63/99/66
f 63/99/66 59/95/62 61/97/64
f 59/95/62 55/91/58 61/97/64
f 61/97/64 55/91/58 62/98/65
f 55/91/58 57/93/60 62/98/65
f 62/98/65 57/93/60 63/99/66
f 11/100/14 10/101/13 64/102/67
f 65/103/68 64/102/67 10/101/13
f 31/104/34 34/105/37 72/106/69
f 72/106/69 73/107/70 31/104/34
f 73/107/70 72/106/69 74/108/71
f 74/108/71 75/109/72 73/107/70
f 70/110/73 71/111/74 69/112/75
f 76/113/76 69/112/75 71/111/74
f 69/112/75 76/113/76 77/114/77
f 77/114/77 68/115/78 69/112/75
f 68/115/78 77/114/77 78/116/79
f 78/116/79 67/117/80 68/115/78
f 67/117/80 78/116/79 79/118/81
f 79/118/81 66/119/82 67/117/80
f 66/119/82 79/118/81 64/120/67
f 64/120/67 65/121/68 66/119/82
f 41/122/44 40/123/43 80/124/83
f 80/124/83 81/125/84 41/122/44
f 81/125/84 80/124/83 82/126/85
f 82/126/85 83/127/86 81/125/84
f 84/128/87 85/129/88 86/130/89
f 85/129/88 87/131/90 86/130/89
f 85/129/88 88/132/91 87/131/90
f 88/132/91 89/133/92 87/131/90
f 88/132/91 84/128/87 89/133/92
f 84/128/87 86/130/89 89/133/92
f 89/133/92 86/130/89 90/134/93
f 86/130/89 91/135/94 90/134/93
f 90/134/93 91/135/94 88/132/91
f 91/135/94 84/128/87 88/132/91
f 91/135/94 92/136/95 84/128/87
f 92/136/95 85/129/88 84/128/87
f 92/136/95 90/134/93 85/129/88
f 90/134/93 88/132/91 85/129/88
f 86/130/89 87/131/90 91/135/94
f 87/131/90 92/136/95 91/135/94
f 87/131/90 89/133/92 92/136/95
f 89/133/92 90/134/93 92/136/95
f 52/137/55 51/138/54 93/139/96
f 93/139/96 94/140/97 52/137/55
f 94/140/97 93/139/96 95/141/98
f 95/141/98 96/142/99 94/140/97
f 96/142/99 95/141/98 48/143/51
f 48/143/51 97/144/100 96/142/99
f 98/145/101 97/144/100 48/143/51
f 48/143/51 47/146/50 98/145/101
f 98/145/101 47/146/50 99/147/102
f 99/147/102 100/148/103 98/145/101
f 100/148/103 99/147/102 101/149/104
f 101/149/104 102/150/105 100/148/103
f 102/150/105 101/149/104 44/151/47
f 44/151/47 43/152/46 102/150/105
f 32/153/35 31/154/34 73/155/70
f 73/155/70 103/156/106 32/153/35
f 103/156/106 73/155/70 75/157/72
f 75/157/72 104/158/107 103/156/106
f 104/158/107 75/157/72 105/159/108
f 105/159/108 35/160/38 104/158/107
f 36/161/39 35/160/38 105/159/108
f 105/159/108 106/162/109 36/161/39
f 36/161/39 106/162/109 82/163/85
f 82/163/85 107/164/110 36/161/39
f 107/164/110 82/163/85 80/165/83
f 80/165/83 108/166/111 107/164/110
f 108/166/111 80/165/83 40/167/43
f 40/167/43 39/168/42 108/166/111
f 100/169/103 109/170/112 110/171/113
f 110/171/113 98/172/101 100/169/103
f 97/173/100 98/172/101 110/171/113
f 110/171/113 111/174/114 97/173/100
f 97/173/100 111/174/114 112/175/115
f 112/175/115 96/176/99 97/173/100
f 49/177/52 48/178/51 95/179/98
f 95/179/98 113/180/116 49/177/52
f 113/180/116 95/179/98 93/181/96
f 93/181/96 114/182/117 113/180/116
f 114/182/117 93/181/96 51/183/54
f 51/183/54 54/184/57 114/182/117
f 45/185/48 44/186/47 101/187/104
f 101/187/104 115/188/118 45/185/48
f 115/188/118 101/187/104 99/189/102
f 99/189/102 116/190/119 115/188/118
f 116/190/119 99/189/102 47/191/50
f 47/191/50 50/192/53 116/190/119
f 42/193/45 41/194/44 81/195/84
f 81/195/84 117/196/120 42/193/45
f 117/196/120 81/195/84 83/197/86
f 83/197/86 118/198/121 117/196/120
f 118/198/121 83/197/86 119/199/122
f 119/199/122 37/200/40 118/198/121
f 37/200/40 119/199/122 120/201/123
f 120/201/123 38/202/41 37/200/40
f 38/202/41 120/201/123 74/203/71
f 74/203/71 121/204/124 38/202/41
f 121/204/124 74/203/71 72/205/69
f 72/205/69 122/206/125 121/204/124
f 122/206/125 72/205/69 34/207/37
f 34/207/37 33/208/36 122/206/125
f 43/209/46 46/210/49 123/211/126
f 123/211/126 102/212/105 43/209/46
f 102/212/105 123/211/126 109/213/112
f 109/213/112 100/214/103 102/212/105
f 75/215/72 74/216/71 120/217/123
f 120/217/123 105/218/108 75/215/72
f 106/219/109 105/218/108 120/217/123
f 120/217/123 119/220/122 106/219/109
f 106/219/109 119/220/122 83/221/86
f 83/221/86 82/222/85 106/219/109
f 37/223/40 36/224/39 107/225/110
f 107/225/110 118/226/121 37/223/40
f 118/226/121 107/225/110 108/227/111
f 108/227/111 117/228/120 118/226/121
f 117/228/120 108/227/111 39/229/42
f 39/229/42 42/230/45 117/228/120
f 33/231/36 32/232/35 103/233/106
f 103/233/106 122/234/125 33/231/36
f 122/234/125 103/233/106 104/235/107
f 104/235/107 121/236/124 122/234/125
f 121/236/124 104/235/107 35/237/38
f 35/237/38 38/238/41 121/236/124
f 53/239/56 52/240/55 94/241/97
f 94/241/97 124/242/127 53/239/56
f 124/242/127 94/241/97 96/243/99
f 96/243/99 112/244/115 124/242/127
f 54/245/57 53/246/56 124/247/127
f 124/247/127 114/248/117 54/245/57
f 114/248/117 124/247/127 112/249/115
f 112/249/115 113/250/116 114/248/117
f 113/250/116 112/249/115 111/251/114
f 111/251/114 49/252/52 113/250/116
f 49/252/52 111/251/114 110/253/113
f 110/253/113 50/254/53 49/252/52
f 50/254/53 110/253/113 109/255/112
f 109/255/112 116/256/119 50/254/53
f 116/256/119 109/255/112 123/257/126
f 123/257/126 115/258/118 116/256/119
f 115/258/118 123/257/126 46/259/49
f 46/259/49 45/260/48 115/258/118
