# 3ds Max Wavefront OBJ Exporter v0.97b - (c)2007 guruware
# File Created: 08.03.2012 21:39:38

mtllib blitzball.mtl

#
# object obj0
#

v  321.0000 1390.5365 1421.6938
v  -122.0000 1245.5365 1421.6938
v  0.0000 837.5365 1247.6938
v  -377.0000 808.5365 1169.6938
v  -637.0000 1282.5366 1285.6938
v  -787.0000 1019.5366 1089.6938
v  -1019.0000 1282.5366 1008.6938
v  -989.0000 808.5366 724.6938
v  -1246.0000 1390.5366 749.6939
v  -1181.0000 837.5367 389.6938
v  -1383.0000 1245.5367 326.6939
v  -1223.0000 808.5367 6.6938
v  -1414.0000 1282.5367 -204.3061
v  -1274.0000 1019.5367 -407.3062
v  -1268.0000 1282.5369 -653.3061
v  -988.9999 808.5370 -712.3062
v  -1092.0000 1390.5369 -948.3061
v  -729.0000 837.5370 -997.3062
v  -732.0000 1245.5369 -1210.3062
v  -378.0000 808.5370 -1156.3062
v  -236.0000 1282.5370 -1403.3062
v  0.0000 1019.5370 -1332.3062
v  236.0000 1282.5370 -1403.3062
v  378.0000 808.5370 -1156.3062
v  571.0000 1390.5369 -1327.3062
v  729.0000 837.5370 -997.3062
v  931.0000 1245.5369 -1065.3062
v  989.0001 808.5370 -712.3062
v  1268.0000 1282.5369 -653.3061
v  1274.0000 1019.5367 -407.3062
v  1414.0000 1282.5367 -204.3061
v  1223.0000 808.5367 6.6938
v  1445.0000 1390.5367 137.6939
v  1181.0000 837.5367 389.6938
v  1307.0000 1245.5369 560.6939
v  963.0001 748.5367 688.6938
v  1019.0000 1282.5366 1008.6940
v  767.0000 949.5366 1062.6938
v  637.0000 1282.5366 1285.6938
v  351.0000 748.5365 1133.6938
v  1181.0000 2409.5366 389.6940
v  906.0000 2779.5366 -41.3059
v  668.0000 2823.5366 528.6942
v  646.0000 2926.5366 215.6942
v  378.0000 3038.5366 -115.3058
v  233.0000 3038.5366 327.6942
v  0.0000 3239.5366 6.6942
v  -233.0000 3038.5366 327.6942
v  -378.0000 3038.5366 -115.3058
v  -646.0000 2926.5366 215.6942
v  -906.0000 2779.5366 -41.3059
v  -704.0000 2779.5366 578.6942
v  -1181.0000 2409.5366 389.6940
v  0.0000 2409.5366 1247.6940
v  -377.0000 2438.5366 1169.6940
v  -122.0000 2001.5365 1421.6940
v  -637.0000 1964.5366 1285.6940
v  -787.0000 2227.5366 1089.6940
v  -646.0000 320.5367 215.6938
v  -233.0000 208.5367 327.6937
v  -704.0000 467.5367 578.6937
v  -326.0000 467.5367 853.6937
v  0.0000 320.5367 685.6937
v  289.0000 423.5367 803.6937
v  233.0000 208.5367 327.6937
v  668.0000 423.5367 528.6937
v  646.0000 320.5367 215.6938
v  906.0000 467.5367 -41.3062
v  378.0000 208.5367 -115.3063
v  761.0000 467.5367 -486.3062
v  399.0000 320.5367 -542.3064
v  233.0000 467.5367 -870.3063
v  0.0000 208.5367 -390.3063
v  -233.0000 467.5367 -870.3063
v  -399.0000 320.5367 -542.3063
v  -761.0000 467.5367 -486.3062
v  -378.0000 208.5367 -115.3063
v  -906.0000 467.5367 -41.3062
v  -1019.0000 1964.5366 1008.6940
v  -1246.0000 1856.5366 749.6939
v  -989.0000 2438.5366 724.6940
v  -728.0000 2662.5366 1008.6941
v  -326.0000 2779.5366 853.6942
v  289.0000 2823.5366 803.6942
v  351.0000 2498.5366 1133.6940
v  695.0000 2725.5366 962.6942
v  767.0000 2297.5366 1062.6940
v  963.0001 2498.5366 688.6940
v  1019.0000 1964.5366 1008.6941
v  1307.0000 2001.5369 560.6939
v  1222.0000 1623.5366 821.6939
v  1537.0000 1623.5367 505.6939
v  -1178.0000 584.5367 -375.3062
v  -728.0000 584.5366 1008.6936
v  0.0000 2926.5366 685.6942
v  1414.0000 1964.5367 -204.3060
v  1268.0000 1964.5369 -653.3061
v  1274.0000 2227.5366 -407.3060
v  989.0001 2438.5369 -712.3060
v  931.0000 2001.5369 -1065.3060
v  729.0000 2409.5369 -997.3060
v  571.0000 1856.5369 -1327.3060
v  378.0000 2438.5369 -1156.3060
v  236.0000 1964.5370 -1403.3060
v  0.0000 2227.5369 -1332.3060
v  -236.0000 1964.5370 -1403.3060
v  -378.0000 2438.5369 -1156.3060
v  -732.0000 2001.5369 -1210.3060
v  -729.0000 2409.5369 -997.3060
v  -1092.0000 1856.5369 -948.3061
v  -988.9999 2438.5369 -712.3060
v  -1268.0000 1964.5369 -653.3061
v  -1274.0000 2227.5366 -407.3060
v  -1414.0000 1964.5367 -204.3060
v  0.0000 2662.5371 -1231.3060
v  233.0000 2779.5366 -870.3058
v  -233.0000 2779.5366 -870.3058
v  0.0000 3038.5366 -390.3058
v  -399.0000 2926.5366 -542.3058
v  -761.0000 2779.5366 -486.3059
v  -1178.0000 2662.5366 -375.3059
v  695.0000 521.5366 962.6937
v  1178.0000 584.5367 -375.3062
v  -1383.0000 2001.5367 326.6940
v  -1537.0000 1623.5367 505.6939
v  -1468.0000 1623.5367 64.6939
v  -1398.0000 1623.5367 -447.3061
v  -950.0000 1623.5369 -1301.3060
v  -509.0000 1623.5369 -1371.3060
v  0.0000 1623.5370 -1463.3060
v  950.0000 1623.5369 -1301.3060
v  1153.0000 1623.5369 -903.3061
v  1398.0000 1623.5367 -447.3061
v  1445.0000 1856.5367 137.6940
v  399.0000 2926.5366 -542.3059
v  761.0000 2779.5366 -486.3059
v  1178.0000 2662.5366 -375.3059
v  1223.0000 2438.5366 6.6941
v  0.0000 584.5371 -1231.3062
v  0.0000 7.5367 6.6937
v  -397.0000 1623.5365 1421.6940
v  -864.0000 1623.5366 1195.6940
v  -1223.0000 2438.5366 6.6941
v  637.0000 1964.5366 1285.6940
v  864.0000 1623.5366 1195.6940
v  321.0000 1856.5365 1421.6940
v  0.0000 1623.5365 1622.6940
# 147 vertices

vn 0.3123 -0.2131 0.9258
vn -0.1417 -0.3696 0.9183
vn 0.0183 -0.5660 0.8242
vn -0.1863 -0.4749 0.8601
vn -0.4203 -0.2449 0.8737
vn -0.5586 -0.3110 0.7689
vn -0.6832 -0.2480 0.6869
vn -0.7638 -0.4673 0.4453
vn -0.7869 -0.2079 0.5811
vn -0.7829 -0.5573 0.2766
vn -0.9172 -0.3696 0.1490
vn -0.8756 -0.4749 0.0886
vn -0.9608 -0.2449 -0.1297
vn -0.9039 -0.3110 -0.2937
vn -0.8643 -0.2480 -0.4375
vn -0.6595 -0.4673 -0.5888
vn -0.7958 -0.2079 -0.5688
vn -0.5050 -0.5573 -0.6591
vn -0.4251 -0.3696 -0.8263
vn -0.3548 -0.4749 -0.8053
vn -0.1735 -0.2449 -0.9539
vn 0.0000 -0.3110 -0.9504
vn 0.1490 -0.2480 -0.9572
vn 0.3562 -0.4673 -0.8092
vn 0.2950 -0.2079 -0.9326
vn 0.4708 -0.5573 -0.6839
vn 0.6545 -0.3696 -0.6596
vn 0.6563 -0.4749 -0.5863
vn 0.8536 -0.2449 -0.4598
vn 0.9039 -0.3110 -0.2937
vn 0.9564 -0.2480 -0.1541
vn 0.8797 -0.4673 0.0887
vn 0.9781 -0.2079 -0.0076
vn 0.7925 -0.5643 0.2312
vn 0.8254 -0.3753 0.4218
vn 0.7523 -0.5023 0.4263
vn 0.7008 -0.2595 0.6645
vn 0.5515 -0.3459 0.7591
vn 0.4344 -0.2649 0.8609
vn 0.1734 -0.4957 0.8510
vn 0.7925 0.5643 0.2312
vn 0.5678 0.8190 0.0822
vn 0.4966 0.8336 0.2421
vn 0.4279 0.8943 0.1305
vn 0.3765 0.9183 -0.1223
vn 0.2257 0.9234 0.3106
vn 0.0000 1.0000 0.0000
vn -0.2327 0.9183 0.3202
vn -0.3765 0.9183 -0.1223
vn -0.4300 0.8919 0.1397
vn -0.5682 0.8188 0.0819
vn -0.5079 0.8188 0.2677
vn -0.7829 0.5573 0.2766
vn 0.0183 0.5660 0.8242
vn -0.1863 0.4749 0.8601
vn -0.1417 0.3696 0.9183
vn -0.4203 0.2449 0.8737
vn -0.5586 0.3110 0.7689
vn -0.4300 -0.8919 0.1397
vn -0.2327 -0.9183 0.3202
vn -0.5079 -0.8188 0.2677
vn -0.0973 -0.8190 0.5654
vn -0.0081 -0.8944 0.4473
vn 0.0768 -0.8335 0.5471
vn 0.2257 -0.9234 0.3106
vn 0.4966 -0.8336 0.2421
vn 0.4279 -0.8944 0.1305
vn 0.5678 -0.8190 0.0822
vn 0.3765 -0.9183 -0.1223
vn 0.4115 -0.8188 -0.4003
vn 0.2658 -0.8919 -0.3658
vn 0.2535 -0.8188 -0.5151
vn 0.0000 -0.9183 -0.3959
vn -0.2535 -0.8188 -0.5151
vn -0.2658 -0.8919 -0.3658
vn -0.4115 -0.8188 -0.4003
vn -0.3765 -0.9183 -0.1223
vn -0.5682 -0.8188 0.0819
vn -0.6994 0.2059 0.6844
vn -0.7880 0.2760 0.5503
vn -0.7638 0.4673 0.4453
vn -0.4502 0.6428 0.6198
vn -0.0973 0.8190 0.5654
vn 0.0768 0.8335 0.5471
vn 0.1734 0.4957 0.8510
vn 0.4299 0.6820 0.5917
vn 0.5515 0.3459 0.7591
vn 0.7523 0.5023 0.4263
vn 0.7008 0.2595 0.6645
vn 0.8254 0.3753 0.4218
vn 0.7577 -0.0000 0.6526
vn 0.9511 -0.0000 0.3090
vn -0.7286 -0.6428 -0.2367
vn -0.4502 -0.6428 0.6198
vn -0.0081 0.8944 0.4473
vn 0.9681 0.2059 -0.1426
vn 0.8536 0.2449 -0.4598
vn 0.9039 0.3110 -0.2937
vn 0.6563 0.4749 -0.5863
vn 0.6545 0.3696 -0.6596
vn 0.4708 0.5573 -0.6839
vn 0.3141 0.2760 -0.9084
vn 0.3562 0.4673 -0.8092
vn 0.1635 0.2060 -0.9648
vn 0.0000 0.3110 -0.9504
vn -0.1735 0.2449 -0.9539
vn -0.3548 0.4749 -0.8053
vn -0.4251 0.3696 -0.8263
vn -0.5050 0.5573 -0.6591
vn -0.7668 0.2760 -0.5794
vn -0.6595 0.4673 -0.5888
vn -0.8670 0.2059 -0.4537
vn -0.9039 0.3110 -0.2937
vn -0.9608 0.2449 -0.1297
vn 0.0000 0.6428 -0.7660
vn 0.2535 0.8188 -0.5151
vn -0.2535 0.8188 -0.5151
vn 0.0000 0.9183 -0.3959
vn -0.2658 0.8919 -0.3658
vn -0.4115 0.8188 -0.4003
vn -0.7286 0.6428 -0.2367
vn 0.4299 -0.6820 0.5917
vn 0.7286 -0.6428 -0.2367
vn -0.9172 0.3696 0.1490
vn -0.9511 -0.0000 0.3090
vn -0.9966 0.0000 -0.0825
vn -0.9452 -0.0011 -0.3265
vn -0.5878 0.0000 -0.8090
vn -0.2294 0.0000 -0.9733
vn 0.0184 -0.0011 -0.9998
vn 0.5878 0.0000 -0.8090
vn 0.8548 0.0000 -0.5190
vn 0.9566 -0.0011 -0.2914
vn 0.9610 0.2760 0.0180
vn 0.2658 0.8919 -0.3658
vn 0.4115 0.8188 -0.4003
vn 0.7286 0.6428 -0.2367
vn 0.8797 0.4673 0.0887
vn 0.0000 -0.6428 -0.7660
vn 0.0000 -1.0000 -0.0000
vn -0.3865 -0.0000 0.9223
vn -0.6026 -0.0011 0.7980
vn -0.8756 0.4749 0.0886
vn 0.4286 0.2201 0.8763
vn 0.5728 -0.0011 0.8197
vn 0.2835 0.2828 0.9163
vn 0.0000 -0.0000 1.0000
# 147 vertex normals

vt 0.3184 0.7173 0.0000
vt 0.3965 0.6934 0.0000
vt 0.3716 0.6191 0.0000
vt 0.4341 0.6040 0.0000
vt 0.4946 0.6729 0.0000
vt 0.5117 0.6084 0.0000
vt 0.5864 0.6128 0.0000
vt 0.5488 0.5322 0.0000
vt 0.6587 0.5552 0.0000
vt 0.5879 0.4634 0.0000
vt 0.6606 0.4521 0.0000
vt 0.5981 0.3789 0.0000
vt 0.6777 0.3340 0.0000
vt 0.6289 0.2954 0.0000
vt 0.6563 0.2290 0.0000
vt 0.5645 0.2402 0.0000
vt 0.6230 0.1245 0.0000
vt 0.5156 0.1797 0.0000
vt 0.5610 0.0913 0.0000
vt 0.4404 0.1572 0.0000
vt 0.4365 0.0659 0.0000
vt 0.3687 0.1069 0.0000
vt 0.3091 0.0664 0.0000
vt 0.2974 0.1543 0.0000
vt 0.2134 0.0752 0.0000
vt 0.2241 0.1865 0.0000
vt 0.1523 0.1396 0.0000
vt 0.1636 0.2422 0.0000
vt 0.0776 0.2339 0.0000
vt 0.1040 0.2959 0.0000
vt 0.0532 0.3433 0.0000
vt 0.1343 0.3794 0.0000
vt 0.0562 0.4272 0.0000
vt 0.1504 0.4580 0.0000
vt 0.1006 0.5103 0.0000
vt 0.1929 0.5156 0.0000
vt 0.1553 0.6123 0.0000
vt 0.2300 0.6025 0.0000
vt 0.2471 0.6763 0.0000
vt 0.3105 0.5977 0.0000
vt 0.1504 0.9424 0.0000
vt 0.2090 0.8599 0.0000
vt 0.2539 0.9561 0.0000
vt 0.2588 0.9053 0.0000
vt 0.3032 0.8506 0.0000
vt 0.3296 0.9229 0.0000
vt 0.3687 0.8701 0.0000
vt 0.4067 0.9219 0.0000
vt 0.4321 0.8496 0.0000
vt 0.4780 0.9033 0.0000
vt 0.5234 0.8560 0.0000
vt 0.4893 0.9673 0.0000
vt 0.5879 0.9482 0.0000
vt 0.4780 0.4189 0.0000
vt 0.4067 0.4375 0.0000
vt 0.4893 0.4824 0.0000
vt 0.4194 0.5269 0.0000
vt 0.3687 0.4961 0.0000
vt 0.3242 0.5210 0.0000
vt 0.3296 0.4380 0.0000
vt 0.2539 0.4717 0.0000
vt 0.2588 0.4204 0.0000
vt 0.2090 0.3750 0.0000
vt 0.3032 0.3662 0.0000
vt 0.2314 0.3018 0.0000
vt 0.2979 0.3037 0.0000
vt 0.3247 0.2310 0.0000
vt 0.3682 0.3281 0.0000
vt 0.4092 0.2310 0.0000
vt 0.4370 0.3022 0.0000
vt 0.5015 0.3003 0.0000
vt 0.4321 0.3652 0.0000
vt 0.5234 0.3716 0.0000
vt 0.6709 0.6050 0.0000
vt 0.4780 0.5635 0.0000
vt 0.2656 0.5459 0.0000
vt 0.0820 0.6128 0.0000
vt 0.0332 0.5127 0.0000
vt 0.5654 0.3164 0.0000
vt 0.3687 0.1636 0.0000
vt 0.1660 0.3135 0.0000
vt 0.7129 0.4961 0.0000
vt 0.7275 0.3950 0.0000
vt 0.7236 0.2695 0.0000
vt 0.6787 0.1167 0.0000
vt 0.6299 0.0684 0.0000
vt 0.5518 0.0347 0.0000
vt 0.3760 0.0098 0.0000
vt 0.2021 0.0317 0.0000
vt 0.1152 0.0723 0.0000
vt 0.0542 0.1489 0.0000
vt 0.0122 0.2856 0.0000
vt 0.0122 0.4492 0.0000
vt 0.3682 0.8125 0.0000
vt 0.2979 0.7881 0.0000
vt 0.2314 0.7861 0.0000
vt 0.1660 0.7983 0.0000
vt 0.1343 0.8638 0.0000
vt 0.1040 0.7808 0.0000
vt 0.0532 0.8281 0.0000
vt 0.0562 0.9131 0.0000
vt 0.3687 0.3853 0.0000
vt 0.4609 0.7524 0.0000
vt 0.5767 0.6870 0.0000
vt 0.5981 0.8633 0.0000
vt 0.6606 0.9365 0.0000
vt 0.6777 0.8188 0.0000
vt 0.6289 0.7798 0.0000
vt 0.5654 0.8008 0.0000
vt 0.8315 0.7500 0.0000
vt 0.7500 0.8037 0.0000
vt 0.7515 0.7168 0.0000
vt 0.6650 0.7686 0.0000
vt 0.8076 0.4775 0.0000
vt 0.8301 0.6123 0.0000
vt 0.7485 0.5161 0.0000
vt 0.8848 0.5327 0.0000
vt 0.3687 0.9805 0.0000
vt 0.8804 0.6943 0.0000
vt 0.7578 0.6304 0.0000
vt 0.7520 0.7168 0.0000
vt 0.6733 0.6797 0.0000
vt 0.9189 0.6157 0.0000
vt 0.8809 0.6948 0.0000
vt 0.9917 0.5708 0.0000
vt 0.9185 0.6152 0.0000
vt 0.8853 0.5332 0.0000
vt 0.9185 0.6157 0.0000
vt 0.9766 0.6826 0.0000
vt 0.8809 0.6953 0.0000
# 130 texture coords

g obj0
usemtl Material__25
s 1
f 1/1/1 2/2/2 3/3/3 
f 3/3/3 2/2/2 4/4/4 
f 2/2/2 5/5/5 4/4/4 
f 4/4/4 5/5/5 6/6/6 
f 5/5/5 7/7/7 6/6/6 
f 6/6/6 7/7/7 8/8/8 
f 7/7/7 9/9/9 8/8/8 
f 8/8/8 9/9/9 10/10/10 
f 9/9/9 11/11/11 10/10/10 
f 10/10/10 11/11/11 12/12/12 
f 11/11/11 13/13/13 12/12/12 
f 12/12/12 13/13/13 14/14/14 
f 13/13/13 15/15/15 14/14/14 
f 14/14/14 15/15/15 16/16/16 
f 15/15/15 17/17/17 16/16/16 
f 16/16/16 17/17/17 18/18/18 
f 17/17/17 19/19/19 18/18/18 
f 18/18/18 19/19/19 20/20/20 
f 19/19/19 21/21/21 20/20/20 
f 20/20/20 21/21/21 22/22/22 
f 21/21/21 23/23/23 22/22/22 
f 22/22/22 23/23/23 24/24/24 
f 23/23/23 25/25/25 24/24/24 
f 24/24/24 25/25/25 26/26/26 
f 25/25/25 27/27/27 26/26/26 
f 26/26/26 27/27/27 28/28/28 
f 27/27/27 29/29/29 28/28/28 
f 28/28/28 29/29/29 30/30/30 
f 29/29/29 31/31/31 30/30/30 
f 30/30/30 31/31/31 32/32/32 
f 31/31/31 33/33/33 32/32/32 
f 32/32/32 33/33/33 34/34/34 
f 33/33/33 35/35/35 34/34/34 
f 34/34/34 35/35/35 36/36/36 
f 35/35/35 37/37/37 36/36/36 
f 36/36/36 37/37/37 38/38/38 
f 37/37/37 39/39/39 38/38/38 
f 38/38/38 39/39/39 40/40/40 
f 39/39/39 1/1/1 40/40/40 
f 40/40/40 1/1/1 3/3/3 
f 41/41/41 42/42/42 43/43/43 
f 43/43/43 42/42/42 44/44/44 
f 42/42/42 45/45/45 44/44/44 
f 44/44/44 45/45/45 46/46/46 
f 45/45/45 47/47/47 46/46/46 
f 46/46/46 47/47/47 48/48/48 
f 47/47/47 49/49/49 48/48/48 
f 48/48/48 49/49/49 50/50/50 
f 49/49/49 51/51/51 50/50/50 
f 50/50/50 51/51/51 52/52/52 
f 51/51/51 53/53/53 52/52/52 
f 54/3/54 55/4/55 56/2/56 
f 56/2/56 55/4/55 57/5/57 
f 55/4/55 58/6/58 57/5/57 
f 59/54/59 60/55/60 61/56/61 
f 61/56/61 60/55/60 62/57/62 
f 60/55/60 63/58/63 62/57/62 
f 62/57/62 63/58/63 64/59/64 
f 63/58/63 65/60/65 64/59/64 
f 64/59/64 65/60/65 66/61/66 
f 65/60/65 67/62/67 66/61/66 
f 66/61/66 67/62/67 68/63/68 
f 67/62/67 69/64/69 68/63/68 
f 68/63/68 69/64/69 70/65/70 
f 69/64/69 71/66/71 70/65/70 
f 70/65/70 71/66/71 72/67/72 
f 71/66/71 73/68/73 72/67/72 
f 72/67/72 73/68/73 74/69/74 
f 73/68/73 75/70/75 74/69/74 
f 74/69/74 75/70/75 76/71/76 
f 75/70/75 77/72/77 76/71/76 
f 76/71/76 77/72/77 78/73/78 
f 77/72/77 59/54/59 78/73/78 
f 78/73/78 59/54/59 61/56/61 
f 9/74/9 79/7/79 80/9/80 
f 80/9/80 79/7/79 81/8/81 
f 79/7/79 58/6/58 81/8/81 
f 81/8/81 58/6/58 82/75/82 
f 58/6/58 55/4/55 82/75/82 
f 82/75/82 55/4/55 83/57/83 
f 55/4/55 54/3/54 83/57/83 
f 83/57/83 54/3/54 84/59/84 
f 54/3/54 85/40/85 84/59/84 
f 84/59/84 85/40/85 86/76/86 
f 85/40/85 87/38/87 86/76/86 
f 86/76/86 87/38/87 88/36/88 
f 87/38/87 89/37/89 88/36/88 
f 88/36/88 89/37/89 90/35/90 
f 89/37/89 91/77/91 90/35/90 
f 90/35/90 91/77/91 92/78/92 
f 91/77/91 35/35/35 92/78/92 
f 92/78/92 35/35/35 33/33/33 
f 16/16/16 93/79/93 14/14/14 
f 14/14/14 93/79/93 12/12/12 
f 93/79/93 78/73/78 12/12/12 
f 12/12/12 78/73/78 10/10/10 
f 78/73/78 61/56/61 10/10/10 
f 10/10/10 61/56/61 8/8/8 
f 61/56/61 94/75/94 8/8/8 
f 8/8/8 94/75/94 6/6/6 
f 94/75/94 4/4/4 6/6/6 
f 52/56/52 83/57/83 48/55/48 
f 48/55/48 83/57/83 95/58/95 
f 83/57/83 84/59/84 95/58/95 
f 95/58/95 84/59/84 46/60/46 
f 84/59/84 43/61/43 46/60/46 
f 96/31/96 97/29/97 98/30/98 
f 98/30/98 97/29/97 99/28/99 
f 97/29/97 100/27/100 99/28/99 
f 99/28/99 100/27/100 101/26/101 
f 100/27/100 102/25/102 101/26/101 
f 101/26/101 102/25/102 103/24/103 
f 102/25/102 104/23/104 103/24/103 
f 103/24/103 104/23/104 105/22/105 
f 104/23/104 106/21/106 105/22/105 
f 105/22/105 106/21/106 107/20/107 
f 106/21/106 108/19/108 107/20/107 
f 107/20/107 108/19/108 109/18/109 
f 108/19/108 110/17/110 109/18/109 
f 109/18/109 110/17/110 111/16/111 
f 110/17/110 112/15/112 111/16/111 
f 111/16/111 112/15/112 113/14/113 
f 112/15/112 114/13/114 113/14/113 
f 105/22/105 115/80/115 103/24/103 
f 103/24/103 115/80/115 116/67/116 
f 115/80/115 117/69/117 116/67/116 
f 116/67/116 117/69/117 118/68/118 
f 117/69/117 119/70/119 118/68/118 
f 118/68/118 119/70/119 49/72/49 
f 119/70/119 120/71/120 49/72/49 
f 49/72/49 120/71/120 51/73/51 
f 120/71/120 121/79/121 51/73/51 
f 40/40/40 122/76/122 38/38/38 
f 38/38/38 122/76/122 36/36/36 
f 122/76/122 66/61/66 36/36/36 
f 36/36/36 66/61/66 34/34/34 
f 66/61/66 68/63/68 34/34/34 
f 34/34/34 68/63/68 32/32/32 
f 68/63/68 123/81/123 32/32/32 
f 32/32/32 123/81/123 30/30/30 
f 123/81/123 28/28/28 30/30/30 
f 83/57/83 52/56/52 82/75/82 
f 82/75/82 52/56/52 81/8/81 
f 52/56/52 53/10/53 81/8/81 
f 81/8/81 53/10/53 80/9/80 
f 53/10/53 124/11/124 80/9/80 
f 80/9/80 124/11/124 125/82/125 
f 124/11/124 126/83/126 125/82/125 
f 125/82/125 126/83/126 11/11/11 
f 126/83/126 13/13/13 11/11/11 
f 124/11/124 114/13/114 126/83/126 
f 126/83/126 114/13/114 127/84/127 
f 114/13/114 112/15/112 127/84/127 
f 127/84/127 112/15/112 17/85/17 
f 112/15/112 110/17/110 17/85/17 
f 110/85/110 128/86/128 17/17/17 
f 17/17/17 128/86/128 19/19/19 
f 128/86/128 129/87/129 19/19/19 
f 19/19/19 129/87/129 21/21/21 
f 129/87/129 130/88/130 21/21/21 
f 21/21/21 130/88/130 23/23/23 
f 130/88/130 25/25/25 23/23/23 
f 110/17/110 108/19/108 128/86/128 
f 128/86/128 108/19/108 129/87/129 
f 108/19/108 106/21/106 129/87/129 
f 129/87/129 106/21/106 130/88/130 
f 106/21/106 104/23/104 130/88/130 
f 130/88/130 104/23/104 25/89/25 
f 104/23/104 102/25/102 25/89/25 
f 102/89/102 131/90/131 25/25/25 
f 25/25/25 131/90/131 27/27/27 
f 131/90/131 132/91/132 27/27/27 
f 27/27/27 132/91/132 29/29/29 
f 132/91/132 133/92/133 29/29/29 
f 29/29/29 133/92/133 31/31/31 
f 133/92/133 33/33/33 31/31/31 
f 102/25/102 100/27/100 131/90/131 
f 131/90/131 100/27/100 132/91/132 
f 100/27/100 97/29/97 132/91/132 
f 132/91/132 97/29/97 133/92/133 
f 97/29/97 96/31/96 133/92/133 
f 133/92/133 96/31/96 33/93/33 
f 96/31/96 134/33/134 33/93/33 
f 105/22/105 107/20/107 115/80/115 
f 115/80/115 107/20/107 117/69/117 
f 107/20/107 109/18/109 117/69/117 
f 117/69/117 109/18/109 120/71/120 
f 109/18/109 111/16/111 120/71/120 
f 120/71/120 111/16/111 121/79/121 
f 111/16/111 113/14/113 121/79/121 
f 118/94/118 45/45/45 135/95/135 
f 135/95/135 45/45/45 136/96/136 
f 45/45/45 42/42/42 136/96/136 
f 136/96/136 42/42/42 137/97/137 
f 42/42/42 138/98/138 137/97/137 
f 137/97/137 138/98/138 98/99/98 
f 138/98/138 96/100/96 98/99/98 
f 96/100/96 138/98/138 134/101/134 
f 134/101/134 138/98/138 41/41/41 
f 138/98/138 42/42/42 41/41/41 
f 123/81/123 70/65/70 28/28/28 
f 28/28/28 70/65/70 26/26/26 
f 70/65/70 72/67/72 26/26/26 
f 26/26/26 72/67/72 24/24/24 
f 72/67/72 139/80/139 24/24/24 
f 24/24/24 139/80/139 22/22/22 
f 139/80/139 20/20/20 22/22/22 
f 59/54/59 77/72/77 60/55/60 
f 60/55/60 77/72/77 140/102/140 
f 77/72/77 73/68/73 140/102/140 
f 140/102/140 73/68/73 69/64/69 
f 73/68/73 71/66/71 69/64/69 
f 2/2/2 141/103/141 5/5/5 
f 5/5/5 141/103/141 142/104/142 
f 141/103/141 57/5/57 142/104/142 
f 142/104/142 57/5/57 79/7/79 
f 57/5/57 58/6/58 79/7/79 
f 98/30/98 99/28/99 137/81/137 
f 137/81/137 99/28/99 136/65/136 
f 99/28/99 101/26/101 136/65/136 
f 136/65/136 101/26/101 116/67/116 
f 101/26/101 103/24/103 116/67/116 
f 134/33/134 41/34/41 90/35/90 
f 90/35/90 41/34/41 88/36/88 
f 41/34/41 43/61/43 88/36/88 
f 88/36/88 43/61/43 86/76/86 
f 43/61/43 84/59/84 86/76/86 
f 94/75/94 62/57/62 4/4/4 
f 4/4/4 62/57/62 3/3/3 
f 62/57/62 64/59/64 3/3/3 
f 3/3/3 64/59/64 40/40/40 
f 64/59/64 122/76/122 40/40/40 
f 139/80/139 74/69/74 20/20/20 
f 20/20/20 74/69/74 18/18/18 
f 74/69/74 76/71/76 18/18/18 
f 18/18/18 76/71/76 16/16/16 
f 76/71/76 93/79/93 16/16/16 
f 67/62/67 65/60/65 69/64/69 
f 69/64/69 65/60/65 140/102/140 
f 65/60/65 60/55/60 140/102/140 
f 118/68/118 135/66/135 116/67/116 
f 116/67/116 135/66/135 136/65/136 
f 126/83/126 127/84/127 13/13/13 
f 13/13/13 127/84/127 15/15/15 
f 127/84/127 17/17/17 15/15/15 
f 51/51/51 143/105/143 53/53/53 
f 53/53/53 143/105/143 124/106/124 
f 143/105/143 114/107/114 124/106/124 
f 114/107/114 143/105/143 113/108/113 
f 113/108/113 143/105/143 121/109/121 
f 143/105/143 51/51/51 121/109/121 
f 85/40/85 144/39/144 87/38/87 
f 87/38/87 144/39/144 89/37/89 
f 39/110/39 37/111/37 145/112/145 
f 145/112/145 37/111/37 91/113/91 
f 9/9/9 7/7/7 142/104/142 
f 142/104/142 7/7/7 5/5/5 
f 80/74/80 125/82/125 9/9/9 
f 9/9/9 125/82/125 11/11/11 
f 49/49/49 47/47/47 118/94/118 
f 118/94/118 47/47/47 45/45/45 
f 54/114/54 146/115/146 85/116/85 
f 54/114/54 56/117/56 146/115/146 
f 52/52/52 48/48/48 50/50/50 
f 117/69/117 120/71/120 119/70/119 
f 93/79/93 76/71/76 78/73/78 
f 95/118/95 46/46/46 48/48/48 
f 1/119/1 144/120/144 146/115/146 
f 1/119/1 145/121/145 144/120/144 
f 145/121/145 89/122/89 144/120/144 
f 145/121/145 91/113/91 89/122/89 
f 146/115/146 144/120/144 85/116/85 
f 9/74/9 142/104/142 79/7/79 
f 141/103/141 56/2/56 57/5/57 
f 75/70/75 73/68/73 77/72/77 
f 94/75/94 61/56/61 62/57/62 
f 63/58/63 60/55/60 65/60/65 
f 1/119/1 39/110/39 145/121/145 
f 91/77/91 37/37/37 35/35/35 
f 92/78/92 33/33/33 134/93/134 
f 92/78/92 134/33/134 90/35/90 
f 147/123/147 1/124/1 146/115/146 
f 141/125/141 147/126/147 56/127/56 
f 147/128/147 146/115/146 56/127/56 
f 122/76/122 64/59/64 66/61/66 
f 46/46/46 43/43/43 44/44/44 
f 139/80/139 72/67/72 74/69/74 
f 141/125/141 2/129/2 147/123/147 
f 147/123/147 2/129/2 1/130/1 
f 123/81/123 68/63/68 70/65/70 
# 0 polygons - 290 triangles

