# Blender 3.6.0
# www.blender.org
mtllib 3DC3_8f173.mtl
o 3CD3_8f173
v 0.000000 -10.000000 0.000000
v 0.000000 0.000000 -1.000000
v 0.000000 0.000000 6.000000
v 0.000000 80.000000 -2.000000
v 36.000000 -40.000000 -14.000000
v -36.000000 -40.000000 -14.000000
v 20.000000 -20.000000 11.000000
v -20.000000 -20.000000 11.000000
v -18.000000 -6.000000 -9.000000
v 18.000000 -6.000000 -9.000000
v -10.000000 0.000000 -4.000000
v 10.000000 0.000000 -4.000000
v 20.000000 0.000000 -4.000000
v -20.000000 0.000000 -4.000000
v -14.000000 20.000000 -10.000000
v 14.000000 20.000000 -10.000000
vn 0.7053 0.0705 0.7053
vn 0.5087 0.3391 0.7913
vn -0.0000 -0.2425 0.9701
vn -0.0000 0.6402 -0.7682
vn -0.5688 0.4063 -0.7151
vn 0.6325 -0.2259 -0.7409
vn -0.7053 0.0705 0.7053
vn 0.2860 -0.0953 -0.9535
vn -0.0000 -1.0000 -0.0000
vn -0.6509 -0.3906 0.6509
vn -0.0000 0.0250 -0.9997
vn -0.5087 -0.3391 -0.7913
vn -0.2860 -0.0953 -0.9535
vn -0.5087 0.3391 0.7913
vn 0.5087 -0.3391 -0.7913
vn 0.6509 -0.3906 0.6509
vn -0.6325 -0.2259 -0.7409
vn 0.5688 0.4063 -0.7151
vt 0.781250 0.218750
vt 0.343750 0.593750
vt 0.718750 0.218750
vt 0.531250 0.468750
vt 0.656250 0.281250
vt 0.906250 0.093750
vt 0.593750 0.406250
vt 0.281250 0.718750
vt 0.843750 0.156250
vt 0.718750 0.281250
s 0
usemtl color_CC
f 4/1/1 3/1/1 12/1/1
usemtl color_56
f 11/2/2 15/2/2 8/2/2
f 8/2/12 15/2/12 11/2/12
f 7/2/14 16/2/14 12/2/14
f 12/2/15 16/2/15 7/2/15
usemtl color_BC
f 11/3/3 14/3/3 6/3/3
f 14/3/5 9/3/5 6/3/5
f 4/3/11 12/3/11 11/3/11
f 5/3/17 12/3/17 10/3/17
f 13/3/3 12/3/3 5/3/3
usemtl color_88
f 9/4/4 14/4/4 11/4/4
f 12/4/4 13/4/4 10/4/4
usemtl color_AB
f 9/5/6 11/5/6 6/5/6
f 5/5/18 10/5/18 13/5/18
usemtl color_EE
f 11/6/7 3/6/7 4/6/7
usemtl color_99
f 1/7/8 11/7/8 2/7/8
f 2/7/13 12/7/13 1/7/13
usemtl color_44
f 11/8/9 12/8/9 2/8/9
usemtl color_DD
f 1/9/10 3/9/10 11/9/10
usemtl color_BB
f 12/10/16 3/10/16 1/10/16
